# Blender 3.4.1
# www.blender.org
mtllib hexagon.mtl
o Hexagon
v -0.500000 -0.250000 -0.866025
v -0.500000 0.250000 -0.866025
v 0.500000 -0.250000 -0.866025
v 0.500000 0.250000 -0.866025
v 1.000000 -0.250000 0.000000
v 1.000000 0.250000 0.000000
v 0.500000 -0.250000 0.866025
v 0.500000 0.250000 0.866025
v -0.500000 -0.250000 0.866025
v -0.500000 0.250000 0.866025
v -1.000000 -0.250000 0.000000
v -1.000000 0.250000 0.000000
vn -0.0000 -0.0000 -1.0000
vn 0.8660 -0.0000 -0.5000
vn 0.8660 -0.0000 0.5000
vn -0.0000 -0.0000 1.0000
vn -0.0000 1.0000 -0.0000
vn -0.8660 -0.0000 0.5000
vn -0.8660 -0.0000 -0.5000
vt 1.000000 0.500000
vt -0.000000 0.500000
vt 1.000000 1.000000
vt 0.250000 0.490000
vt -0.000000 1.000000
vt 0.833333 0.500000
vt 0.833333 1.000000
vt 0.457846 0.370000
vt 0.666667 0.500000
vt 0.666667 1.000000
vt 0.457846 0.130000
vt 0.500000 0.500000
vt 0.500000 1.000000
vt 0.250000 0.010000
vt 0.333333 0.500000
vt 0.042154 0.130000
vt 0.333333 1.000000
vt 0.166667 0.500000
vt 0.042154 0.370000
vt 0.166667 1.000000
s 0
f 2/3/1 3/6/1 1/1/1
f 4/7/2 5/9/2 3/6/2
f 6/10/3 7/12/3 5/9/3
f 8/13/4 9/15/4 7/12/4
f 2/4/5 10/16/5 6/11/5
f 10/17/6 11/18/6 9/15/6
f 12/20/7 1/2/7 11/18/7
f 2/3/1 4/7/1 3/6/1
f 4/7/2 6/10/2 5/9/2
f 6/10/3 8/13/3 7/12/3
f 8/13/4 10/17/4 9/15/4
f 6/11/5 4/8/5 2/4/5
f 2/4/5 12/19/5 10/16/5
f 10/16/5 8/14/5 6/11/5
f 10/17/6 12/20/6 11/18/6
f 12/20/7 2/5/7 1/2/7
